# xmcd
#
# Track frame offsets:
# 187
# 11202
# 24970
# 39517
# 55865
# 67562
# 79852
# 91975
# 104817
# 116780
# 129667
# 144307
# 156727
# 170522
# 185700
# 198450
# 208425
#
# Disc length: 2934 seconds
#
# Revision: 0
# Processed by: cddbd v1.4PL0 Copyright (c) Steve Scherf et al.
# Submitted via: Audion 3.0.2 (http://www.panic.com/audion/)
#
DISCID=fa0b7411
DTITLE=Various Artist - Drop Down Mama
DYEAR=1900
DGENRE=
TTITLE0=So Glad I Found You/Shoe Shine Johnny (Shines)
TTITLE1=Sweet Black Angel (a.k.a. Black Angel Blues)/Robert Nighthawk
TTITLE2=Annie Lee Blues (a.k.a. Annie Lee)/Robert Nighthawk
TTITLE3=One of These Days/Big Boy Spires
TTITLE4=Drop Down Mama/Honey Boy Edwards
TTITLE5=Playhouse/Floyd Jones
TTITLE6=Murmur Low/Big Boy Spires
TTITLE7=You Can't Live Long/Floyd Jones
TTITLE8=Joliet Blues/Shoe Shine Johnny (Shines)
TTITLE9=Jackson Town Gal/Robert Nighthawk
TTITLE10=Return Mail Blues/Robert Nighthawk
TTITLE11=Crying/Blue Smitty and His String Men
TTITLE12=Sad Story/Blue Smitty and His String Men
TTITLE13=Dark Road/Floyd Jones
TTITLE14=My Sweet Lovin' Woman/Robert Nighthawk
TTITLE15=Overseas/Floyd Jones
TTITLE16=Date Bait/Blue Smitty
EXTD=
EXTT0=
EXTT1=
EXTT2=
EXTT3=
EXTT4=
EXTT5=
EXTT6=
EXTT7=
EXTT8=
EXTT9=
EXTT10=
EXTT11=
EXTT12=
EXTT13=
EXTT14=
EXTT15=
EXTT16=
PLAYORDER=
